<svg width="26" height="26" viewBox="0 0 26 26" fill="none" xmlns="http://www.w3.org/2000/svg">
<path d="M10.9704 4.39887C10.598 5.98912 10.5473 7.6378 10.8215 9.24791C11.0956 10.858 11.689 12.397 12.5667 13.7744C13.4444 15.1518 14.5888 16.3397 15.9324 17.2683C17.276 18.1969 18.7918 18.8474 20.3906 19.1815C19.55 20.0512 18.5433 20.7431 17.4303 21.2163C16.3172 21.6894 15.1204 21.9341 13.9109 21.9359C13.7988 21.9359 13.685 21.9399 13.5713 21.9359C11.4656 21.8617 9.45238 21.0522 7.88148 19.648C6.31057 18.2439 5.2812 16.3337 4.9722 14.2495C4.6632 12.1653 5.09409 10.0387 6.19002 8.23913C7.28595 6.43958 8.97766 5.08081 10.9713 4.39887M12.1713 2.4375C12.1236 2.43766 12.0761 2.44201 12.0291 2.4505C9.44263 2.9108 7.11785 4.31168 5.50239 6.38343C3.88694 8.45518 3.09501 11.0513 3.2791 13.672C3.46319 16.2927 4.61026 18.7526 6.49948 20.5782C8.3887 22.4037 10.8865 23.4659 13.5119 23.5601C13.6452 23.5649 13.7784 23.5601 13.9101 23.5601C15.6155 23.5612 17.296 23.1516 18.8097 22.366C20.3233 21.5804 21.6256 20.4418 22.6062 19.0466C22.6857 18.9264 22.7321 18.7873 22.7407 18.6434C22.7494 18.4996 22.72 18.356 22.6555 18.2271C22.591 18.0982 22.4937 17.9885 22.3734 17.9092C22.253 17.8298 22.1139 17.7836 21.9701 17.7751C20.3469 17.6326 18.7782 17.1188 17.3853 16.2734C15.9923 15.428 14.8125 14.2737 13.9368 12.8996C13.0611 11.5255 12.5132 9.96839 12.3353 8.34873C12.1573 6.72907 12.3542 5.09019 12.9107 3.55875C12.958 3.43617 12.9754 3.30405 12.9613 3.1734C12.9473 3.04275 12.9022 2.91735 12.8299 2.80765C12.7575 2.69795 12.66 2.60712 12.5455 2.54274C12.4309 2.47835 12.3026 2.44227 12.1713 2.4375Z" fill="#989898"></path>
</svg>
